<?xml version="1.0" encoding="UTF-8"?>
<svg xmlns="http://www.w3.org/2000/svg" xmlns:xlink="http://www.w3.org/1999/xlink" width="51px" height="32px" viewBox="0 0 32 32" version="1.1">
<g id="surface1">
<rect x="0" y="0" width="32" height="32" style="fill:rgb(100%,100%,100%);fill-opacity:1;stroke:none;"/>
<path style=" stroke:none;fill-rule:evenodd;fill:rgb(0%,46.666667%,65.098039%);fill-opacity:1;" d="M 1.410156 29.5 L 1.316406 29.5 C 1.316406 29.453125 1.292969 29.386719 1.292969 29.363281 C 1.292969 29.339844 1.292969 29.292969 1.226562 29.292969 L 1.085938 29.292969 L 1.085938 29.5 L 1.019531 29.5 L 1.019531 29.019531 L 1.226562 29.019531 C 1.316406 29.019531 1.386719 29.042969 1.386719 29.132812 C 1.386719 29.203125 1.363281 29.226562 1.339844 29.25 C 1.363281 29.269531 1.386719 29.292969 1.386719 29.339844 L 1.386719 29.429688 C 1.386719 29.453125 1.386719 29.453125 1.410156 29.453125 Z M 1.316406 29.15625 C 1.316406 29.089844 1.269531 29.089844 1.25 29.089844 L 1.085938 29.089844 L 1.085938 29.226562 L 1.226562 29.226562 C 1.269531 29.226562 1.316406 29.203125 1.316406 29.15625 Z M 1.707031 29.25 C 1.707031 28.972656 1.476562 28.746094 1.179688 28.746094 C 0.90625 28.746094 0.675781 28.972656 0.675781 29.25 C 0.675781 29.546875 0.90625 29.777344 1.179688 29.777344 C 1.476562 29.773438 1.707031 29.546875 1.707031 29.25 Z M 1.636719 29.25 C 1.636719 29.5 1.429688 29.683594 1.179688 29.683594 C 0.925781 29.683594 0.746094 29.5 0.746094 29.25 C 0.746094 29.019531 0.925781 28.8125 1.179688 28.8125 C 1.429688 28.8125 1.636719 29.019531 1.636719 29.25 Z M 29.851562 19.996094 C 29.851562 20.683594 29.417969 21.003906 28.636719 21.003906 L 27.148438 21.003906 L 27.148438 20.316406 L 28.636719 20.316406 C 28.777344 20.316406 28.890625 20.292969 28.9375 20.25 C 28.980469 20.203125 29.027344 20.132812 29.027344 20.042969 C 29.027344 19.949219 28.980469 19.859375 28.9375 19.8125 C 28.890625 19.765625 28.796875 19.746094 28.660156 19.746094 C 27.953125 19.722656 27.058594 19.765625 27.058594 18.757812 C 27.058594 18.300781 27.355469 17.796875 28.15625 17.796875 L 29.691406 17.796875 L 29.691406 18.484375 L 28.273438 18.484375 C 28.132812 18.484375 28.042969 18.484375 27.972656 18.53125 C 27.90625 18.597656 27.859375 18.667969 27.859375 18.78125 C 27.859375 18.898438 27.929688 18.964844 28.019531 19.011719 C 28.113281 19.035156 28.203125 19.058594 28.316406 19.058594 L 28.730469 19.058594 C 29.164062 19.058594 29.441406 19.148438 29.625 19.308594 C 29.761719 19.46875 29.851562 19.675781 29.851562 19.996094 Z M 26.621094 19.308594 C 26.441406 19.148438 26.164062 19.058594 25.730469 19.058594 L 25.316406 19.058594 C 25.203125 19.058594 25.113281 19.035156 25.019531 19.011719 C 24.929688 18.964844 24.859375 18.898438 24.859375 18.78125 C 24.859375 18.667969 24.882812 18.597656 24.972656 18.53125 C 25.042969 18.484375 25.132812 18.484375 25.273438 18.484375 L 26.691406 18.484375 L 26.691406 17.796875 L 25.15625 17.796875 C 24.332031 17.796875 24.058594 18.300781 24.058594 18.757812 C 24.058594 19.765625 24.953125 19.722656 25.660156 19.746094 C 25.796875 19.746094 25.890625 19.765625 25.9375 19.8125 C 25.980469 19.859375 26.027344 19.949219 26.027344 20.042969 C 26.027344 20.132812 25.980469 20.203125 25.9375 20.25 C 25.867188 20.292969 25.777344 20.316406 25.636719 20.316406 L 24.148438 20.316406 L 24.148438 21.003906 L 25.636719 21.003906 C 26.417969 21.003906 26.851562 20.683594 26.851562 19.996094 C 26.851562 19.675781 26.761719 19.46875 26.621094 19.308594 Z M 23.691406 20.339844 L 21.882812 20.339844 L 21.882812 19.699219 L 23.644531 19.699219 L 23.644531 19.058594 L 21.882812 19.058594 L 21.882812 18.460938 L 23.691406 18.460938 L 23.691406 17.796875 L 21.125 17.796875 L 21.125 21.003906 L 23.691406 21.003906 Z M 20.300781 17.957031 C 20.050781 17.820312 19.753906 17.796875 19.363281 17.796875 L 17.601562 17.796875 L 17.601562 21.003906 L 18.378906 21.003906 L 18.378906 19.835938 L 19.203125 19.835938 C 19.476562 19.835938 19.636719 19.859375 19.753906 19.972656 C 19.890625 20.132812 19.890625 20.410156 19.890625 20.613281 L 19.890625 21.003906 L 20.644531 21.003906 L 20.644531 20.386719 C 20.644531 20.085938 20.621094 19.949219 20.53125 19.789062 C 20.460938 19.699219 20.324219 19.582031 20.140625 19.515625 C 20.347656 19.445312 20.691406 19.171875 20.691406 18.667969 C 20.691406 18.300781 20.554688 18.09375 20.300781 17.957031 Z M 15.949219 17.796875 L 13.5 17.796875 L 12.515625 18.851562 L 11.578125 17.796875 L 8.484375 17.796875 L 8.484375 21.003906 L 11.53125 21.003906 L 12.515625 19.949219 L 13.453125 21.003906 L 14.945312 21.003906 L 14.945312 19.925781 L 15.90625 19.925781 C 16.570312 19.925781 17.234375 19.746094 17.234375 18.851562 C 17.234375 17.980469 16.546875 17.796875 15.949219 17.796875 Z M 19.683594 19.125 C 19.570312 19.171875 19.453125 19.171875 19.316406 19.171875 L 18.378906 19.195312 L 18.378906 18.460938 L 19.316406 18.460938 C 19.453125 18.460938 19.59375 18.460938 19.683594 18.53125 C 19.777344 18.578125 19.84375 18.667969 19.84375 18.804688 C 19.84375 18.941406 19.777344 19.058594 19.683594 19.125 Z M 15.949219 19.285156 L 14.941406 19.285156 L 14.941406 18.460938 L 15.949219 18.460938 C 16.226562 18.460938 16.410156 18.578125 16.410156 18.851562 C 16.410156 19.125 16.226562 19.285156 15.949219 19.285156 Z M 12.996094 19.402344 L 14.1875 18.140625 L 14.1875 20.730469 Z M 11.140625 20.339844 L 9.242188 20.339844 L 9.242188 19.699219 L 10.933594 19.699219 L 10.933594 19.058594 L 9.242188 19.058594 L 9.242188 18.460938 L 11.164062 18.460938 L 12.011719 19.402344 Z M 27.722656 15.484375 L 26.621094 15.484375 L 25.179688 13.078125 L 25.179688 15.484375 L 23.625 15.484375 L 23.324219 14.773438 L 21.722656 14.773438 L 21.425781 15.484375 L 20.53125 15.484375 C 20.164062 15.484375 19.683594 15.394531 19.410156 15.117188 C 19.15625 14.84375 19.019531 14.476562 19.019531 13.90625 C 19.019531 13.421875 19.089844 12.988281 19.433594 12.644531 C 19.660156 12.394531 20.074219 12.277344 20.601562 12.277344 L 21.332031 12.277344 L 21.332031 12.964844 L 20.601562 12.964844 C 20.324219 12.964844 20.164062 13.011719 20.003906 13.148438 C 19.867188 13.285156 19.796875 13.539062 19.796875 13.882812 C 19.796875 14.226562 19.867188 14.476562 20.003906 14.636719 C 20.117188 14.75 20.324219 14.796875 20.53125 14.796875 L 20.875 14.796875 L 21.972656 12.277344 L 23.117188 12.277344 L 24.402344 15.300781 L 24.402344 12.277344 L 25.59375 12.277344 L 26.945312 14.5 L 26.945312 12.277344 L 27.722656 12.277344 Z M 18.628906 12.277344 L 17.851562 12.277344 L 17.851562 15.484375 L 18.628906 15.484375 Z M 17.003906 12.414062 C 16.753906 12.277344 16.476562 12.277344 16.089844 12.277344 L 14.324219 12.277344 L 14.324219 15.484375 L 15.082031 15.484375 L 15.082031 14.316406 L 15.90625 14.316406 C 16.179688 14.316406 16.363281 14.339844 16.476562 14.453125 C 16.613281 14.613281 16.59375 14.890625 16.59375 15.074219 L 16.59375 15.484375 L 17.371094 15.484375 L 17.371094 14.84375 C 17.371094 14.570312 17.347656 14.429688 17.234375 14.269531 C 17.164062 14.179688 17.027344 14.066406 16.867188 13.996094 C 17.074219 13.90625 17.417969 13.652344 17.417969 13.148438 C 17.417969 12.78125 17.257812 12.574219 17.003906 12.414062 Z M 13.773438 14.820312 L 11.988281 14.820312 L 11.988281 14.179688 L 13.753906 14.179688 L 13.753906 13.515625 L 11.988281 13.515625 L 11.988281 12.941406 L 13.773438 12.941406 L 13.773438 12.277344 L 11.210938 12.277344 L 11.210938 15.484375 L 13.773438 15.484375 Z M 10.636719 12.277344 L 9.378906 12.277344 L 8.4375 14.453125 L 7.429688 12.277344 L 6.195312 12.277344 L 6.195312 15.300781 L 4.890625 12.277344 L 3.746094 12.277344 L 2.371094 15.484375 L 3.195312 15.484375 L 3.492188 14.773438 L 5.09375 14.773438 L 5.394531 15.484375 L 6.949219 15.484375 L 6.949219 12.964844 L 8.074219 15.484375 L 8.738281 15.484375 L 9.859375 12.964844 L 9.859375 15.484375 L 10.636719 15.484375 Z M 23.050781 14.085938 L 22.523438 12.828125 L 21.996094 14.085938 Z M 16.410156 13.585938 C 16.292969 13.652344 16.179688 13.652344 16.019531 13.652344 L 15.082031 13.652344 L 15.082031 12.941406 L 16.019531 12.941406 C 16.15625 12.941406 16.316406 12.941406 16.410156 12.988281 C 16.5 13.058594 16.546875 13.148438 16.546875 13.285156 C 16.546875 13.421875 16.5 13.539062 16.410156 13.585938 Z M 3.765625 14.085938 L 4.292969 12.828125 L 4.820312 14.085938 Z M 29.667969 2.226562 L 2.347656 2.226562 L 2.347656 13.765625 L 3.285156 11.636719 L 5.277344 11.636719 L 5.554688 12.164062 L 5.554688 11.636719 L 7.890625 11.636719 L 8.417969 12.78125 L 8.921875 11.636719 L 16.363281 11.636719 C 16.707031 11.636719 17.003906 11.707031 17.234375 11.890625 L 17.234375 11.636719 L 19.273438 11.636719 L 19.273438 11.890625 C 19.613281 11.707031 20.050781 11.636719 20.554688 11.636719 L 23.507812 11.636719 L 23.78125 12.164062 L 23.78125 11.636719 L 25.957031 11.636719 L 26.28125 12.164062 L 26.28125 11.636719 L 28.410156 11.636719 L 28.410156 16.125 L 26.257812 16.125 L 25.84375 15.4375 L 25.84375 16.125 L 23.164062 16.125 L 22.867188 15.394531 L 22.203125 15.394531 L 21.90625 16.125 L 20.507812 16.125 C 19.957031 16.125 19.546875 15.988281 19.273438 15.851562 L 19.273438 16.125 L 15.949219 16.125 L 15.949219 15.09375 C 15.949219 14.957031 15.929688 14.933594 15.835938 14.933594 L 15.722656 14.933594 L 15.722656 16.125 L 9.308594 16.125 L 9.308594 15.554688 L 9.082031 16.125 L 7.730469 16.125 L 7.5 15.574219 L 7.5 16.125 L 4.914062 16.125 L 4.636719 15.394531 L 3.972656 15.394531 L 3.675781 16.125 L 2.347656 16.125 L 2.347656 29.660156 L 29.667969 29.660156 L 29.667969 21.4375 C 29.371094 21.578125 28.957031 21.644531 28.546875 21.644531 L 26.554688 21.644531 L 26.554688 21.371094 C 26.324219 21.554688 25.914062 21.644531 25.523438 21.644531 L 19.25 21.644531 L 19.25 20.613281 C 19.25 20.476562 19.226562 20.476562 19.109375 20.476562 L 18.996094 20.476562 L 18.996094 21.644531 L 16.9375 21.644531 L 16.9375 20.429688 C 16.59375 20.589844 16.203125 20.589844 15.859375 20.589844 L 15.628906 20.589844 L 15.628906 21.644531 L 13.109375 21.644531 L 12.515625 20.957031 L 11.851562 21.644531 L 7.796875 21.644531 L 7.796875 17.15625 L 11.921875 17.15625 L 12.515625 17.84375 L 13.15625 17.15625 L 15.929688 17.15625 C 16.25 17.15625 16.777344 17.203125 17.003906 17.429688 L 17.003906 17.15625 L 19.476562 17.15625 C 19.730469 17.15625 20.210938 17.203125 20.53125 17.429688 L 20.53125 17.15625 L 24.265625 17.15625 L 24.265625 17.429688 C 24.46875 17.25 24.859375 17.15625 25.203125 17.15625 L 27.285156 17.15625 L 27.285156 17.429688 C 27.515625 17.269531 27.835938 17.15625 28.25 17.15625 L 29.667969 17.15625 Z M 29.667969 2.226562 "/>
</g>
</svg>
