<?xml version="1.0" encoding="UTF-8"?>
<svg xmlns="http://www.w3.org/2000/svg" xmlns:xlink="http://www.w3.org/1999/xlink" width="68px" height="32px" viewBox="0 0 67 32" version="1.1">
<g id="surface1">
<path style=" stroke:none;fill-rule:nonzero;fill:rgb(0%,0%,0%);fill-opacity:1;" d="M 0.0078125 0 L 66.992188 0 L 66.992188 32 L 0.0078125 32 Z M 0.0078125 0 "/>
<path style=" stroke:none;fill-rule:nonzero;fill:rgb(100%,79.607843%,1.960784%);fill-opacity:1;" d="M 13.808594 9.800781 C 14.453125 9.585938 15.140625 9.46875 15.855469 9.46875 C 18.976562 9.46875 21.585938 11.710938 22.179688 14.691406 L 26.609375 13.78125 C 25.59375 8.714844 21.164062 4.902344 15.855469 4.902344 C 14.636719 4.902344 13.472656 5.105469 12.378906 5.476562 Z M 13.808594 9.800781 "/>
<path style=" stroke:none;fill-rule:nonzero;fill:rgb(0%,64.313725%,87.843137%);fill-opacity:1;" d="M 8.585938 24.304688 L 11.582031 20.882812 C 10.246094 19.6875 9.402344 17.9375 9.402344 15.992188 C 9.402344 14.050781 10.246094 12.300781 11.582031 11.109375 L 8.585938 7.683594 C 6.316406 9.71875 4.886719 12.6875 4.886719 15.992188 C 4.886719 19.300781 6.316406 22.269531 8.585938 24.304688 "/>
<path style=" stroke:none;fill-rule:nonzero;fill:rgb(93.72549%,25.490196%,13.72549%);fill-opacity:1;" d="M 22.179688 17.300781 C 21.582031 20.28125 18.976562 22.519531 15.859375 22.519531 C 15.140625 22.519531 14.453125 22.402344 13.808594 22.183594 L 12.378906 26.515625 C 13.472656 26.882812 14.640625 27.085938 15.859375 27.085938 C 21.160156 27.085938 25.589844 23.277344 26.609375 18.21875 Z M 22.179688 17.300781 "/>
<path style=" stroke:none;fill-rule:nonzero;fill:rgb(100%,100%,100%);fill-opacity:1;" d="M 30.480469 21.023438 C 30.332031 20.785156 30.136719 20.40625 30.015625 20.125 C 29.316406 18.480469 29.285156 16.777344 29.875 15.144531 C 30.523438 13.351562 31.769531 11.980469 33.375 11.28125 C 35.394531 10.402344 37.628906 10.574219 39.5625 11.734375 C 40.792969 12.445312 41.664062 13.546875 42.324219 15.105469 C 42.410156 15.304688 42.484375 15.519531 42.558594 15.699219 Z M 34.511719 13.925781 C 33.078125 14.546875 32.339844 15.910156 32.492188 17.5 L 38.566406 14.855469 C 37.519531 13.617188 36.164062 13.207031 34.511719 13.925781 Z M 39.324219 19.675781 C 39.320312 19.675781 39.320312 19.679688 39.320312 19.679688 L 39.195312 19.59375 C 38.832031 20.1875 38.265625 20.671875 37.550781 20.984375 C 36.195312 21.582031 34.9375 21.425781 34.03125 20.625 L 33.949219 20.753906 C 33.949219 20.753906 33.949219 20.75 33.945312 20.75 L 32.402344 23.082031 C 32.789062 23.351562 33.199219 23.578125 33.628906 23.757812 C 35.328125 24.472656 37.070312 24.441406 38.789062 23.6875 C 40.027344 23.140625 41.003906 22.3125 41.667969 21.261719 Z M 46.777344 7.851562 L 46.777344 20.808594 L 48.773438 21.625 L 47.640625 24.296875 L 45.441406 23.371094 C 44.949219 23.152344 44.609375 22.824219 44.355469 22.449219 C 44.113281 22.070312 43.933594 21.546875 43.933594 20.84375 L 43.933594 7.851562 Z M 51.941406 17.511719 C 51.941406 16.40625 52.425781 15.417969 53.1875 14.746094 L 51.140625 12.4375 C 49.753906 13.679688 48.882812 15.488281 48.882812 17.503906 C 48.878906 19.523438 49.753906 21.335938 51.136719 22.578125 L 53.179688 20.269531 C 52.417969 19.597656 51.941406 18.613281 51.941406 17.511719 Z M 55.574219 21.1875 C 55.171875 21.1875 54.785156 21.117188 54.421875 20.996094 L 53.445312 23.929688 C 54.113281 24.15625 54.828125 24.28125 55.570312 24.28125 C 58.808594 24.28125 61.511719 21.960938 62.136719 18.875 L 59.136719 18.253906 C 58.792969 19.933594 57.332031 21.191406 55.574219 21.1875 Z M 55.582031 10.742188 C 54.839844 10.742188 54.128906 10.863281 53.460938 11.085938 L 54.429688 14.023438 C 54.792969 13.902344 55.179688 13.835938 55.578125 13.835938 C 57.339844 13.835938 58.804688 15.101562 59.136719 16.78125 L 62.140625 16.167969 C 61.523438 13.074219 58.824219 10.742188 55.582031 10.742188 Z M 55.582031 10.742188 "/>
</g>
</svg>
