<?xml version="1.0" encoding="UTF-8"?>
<svg xmlns="http://www.w3.org/2000/svg" xmlns:xlink="http://www.w3.org/1999/xlink" width="74px" height="32px" viewBox="0 0 73 32" version="1.1">
<g id="surface1">
<path style=" stroke:none;fill-rule:nonzero;fill:rgb(50.980392%,12.941176%,14.117647%);fill-opacity:1;" d="M 20.042969 0 L 12.480469 0 C 9.136719 0.160156 6.40625 1.515625 5.617188 4.3125 C 5.203125 5.769531 4.976562 7.371094 4.65625 8.882812 C 3.019531 16.570312 1.570312 24.46875 0.0078125 32 L 58.898438 32 C 63.449219 32 66.578125 31.03125 67.421875 27.390625 C 67.8125 25.699219 68.1875 23.785156 68.566406 21.929688 C 70.027344 14.683594 71.492188 7.441406 72.992188 0 Z M 20.042969 0 "/>
<path style=" stroke:none;fill-rule:nonzero;fill:rgb(100%,100%,100%);fill-opacity:1;" d="M 19.453125 11.371094 C 19.769531 11.152344 20.175781 10.152344 19.710938 9.738281 C 19.5625 9.605469 19.316406 9.566406 18.972656 9.625 C 18.652344 9.679688 18.46875 9.789062 18.347656 9.960938 C 18.144531 10.234375 17.960938 11.066406 18.273438 11.371094 C 18.574219 11.671875 19.25 11.511719 19.453125 11.371094 Z M 14.953125 9.738281 C 14.722656 11.21875 14.46875 12.671875 14.214844 14.125 C 12.570312 14.140625 10.890625 14.203125 9.304688 14.085938 C 9.605469 12.664062 9.820312 11.160156 10.117188 9.738281 L 8.347656 9.738281 C 7.710938 13.359375 7.136719 17.042969 6.429688 20.589844 L 8.234375 20.589844 C 8.519531 18.769531 8.785156 16.929688 9.160156 15.199219 C 10.699219 15.164062 12.546875 15.097656 14.027344 15.238281 C 13.722656 17.035156 13.355469 18.769531 13.070312 20.589844 L 14.878906 20.589844 C 15.457031 16.914062 16.070312 13.269531 16.796875 9.738281 Z M 40.523438 12.859375 C 39.113281 12.289062 38.007812 13.253906 37.496094 14.160156 C 37.613281 13.757812 37.660156 13.285156 37.753906 12.859375 L 36.351562 12.859375 C 36.007812 15.539062 35.503906 18.050781 35.023438 20.589844 L 36.609375 20.589844 C 36.832031 19.082031 36.929688 17.050781 37.421875 15.609375 C 37.816406 14.457031 38.847656 13.476562 40.335938 14.011719 C 40.359375 13.585938 40.480469 13.261719 40.523438 12.859375 Z M 41.40625 18.769531 C 41.261719 18.386719 41.222656 17.761719 41.261719 17.28125 C 41.34375 16.207031 41.730469 14.902344 42.328125 14.308594 C 43.15625 13.492188 44.789062 13.628906 46.09375 14.085938 C 46.132812 13.644531 46.222656 13.25 46.277344 12.824219 C 44.140625 12.472656 42.113281 12.691406 41.039062 13.824219 C 39.984375 14.9375 39.296875 17.496094 39.785156 19.105469 C 40.355469 20.984375 42.914062 21.089844 44.988281 20.367188 C 45.078125 19.988281 45.128906 19.566406 45.207031 19.179688 C 44.074219 19.769531 41.910156 20.078125 41.40625 18.769531 Z M 59.230469 12.898438 C 57.828125 12.191406 56.660156 13.375 56.203125 14.085938 C 56.332031 13.722656 56.339844 13.234375 56.460938 12.859375 L 55.058594 12.859375 C 54.683594 15.515625 54.226562 18.089844 53.695312 20.589844 L 55.320312 20.589844 C 55.328125 19.566406 55.527344 18.808594 55.6875 17.800781 C 56.027344 15.65625 56.523438 13.304688 59.007812 14.011719 C 59.089844 13.648438 59.125 13.238281 59.230469 12.898438 Z M 17.828125 12.859375 C 17.785156 12.867188 17.789062 12.917969 17.792969 12.972656 C 17.441406 15.605469 16.96875 18.113281 16.464844 20.589844 L 18.050781 20.589844 C 18.433594 17.9375 18.867188 15.34375 19.414062 12.859375 Z M 31.777344 12.710938 C 30.628906 12.800781 29.660156 13.132812 28.972656 13.863281 C 28.128906 14.757812 27.445312 16.742188 27.644531 18.546875 C 27.929688 21.121094 31.113281 21.027344 33.660156 20.40625 C 33.703125 19.953125 33.8125 19.566406 33.878906 19.140625 C 32.832031 19.535156 31.011719 20.085938 29.933594 19.402344 C 29.117188 18.882812 29.113281 17.570312 29.378906 16.425781 C 31.089844 16.371094 32.867188 16.382812 34.582031 16.425781 C 34.691406 15.617188 35 14.738281 34.730469 13.9375 C 34.371094 12.882812 33.085938 12.609375 31.777344 12.710938 Z M 33.289062 15.535156 L 29.5625 15.535156 C 29.679688 14.671875 30.453125 13.722656 31.667969 13.675781 C 32.808594 13.632812 33.628906 14.101562 33.289062 15.535156 Z M 25.761719 12.859375 C 24.417969 12.351562 22.78125 12.957031 22.074219 13.535156 C 22.074219 13.558594 22.054688 13.5625 22.035156 13.566406 C 22.046875 13.554688 22.0625 13.546875 22.074219 13.535156 C 22.074219 13.53125 22.074219 13.53125 22.074219 13.527344 C 22.085938 13.28125 22.171875 13.109375 22.183594 12.859375 L 20.816406 12.859375 C 20.25 16.671875 19.574219 20.378906 18.863281 24.046875 L 20.449219 24.046875 C 20.679688 22.617188 20.832031 21.109375 21.148438 19.773438 C 21.511719 21.179688 23.878906 20.910156 24.878906 20.367188 C 26.9375 19.246094 28.527344 13.90625 25.761719 12.859375 Z M 24.507812 19.140625 C 23.660156 20.046875 21.570312 20.03125 21.410156 18.507812 C 21.335938 17.847656 21.582031 17.152344 21.703125 16.464844 C 21.828125 15.769531 21.914062 15.105469 22.035156 14.496094 C 22.871094 13.464844 25.328125 13.34375 25.578125 15.050781 C 25.792969 16.535156 25.210938 18.390625 24.507812 19.140625 Z M 65.132812 9.515625 C 64.996094 10.714844 64.816406 11.871094 64.578125 12.972656 C 60.6875 11.730469 58.300781 14.613281 58.34375 18.175781 C 58.351562 18.863281 58.46875 19.546875 58.898438 20.03125 C 59.632812 20.871094 61.742188 21.074219 62.808594 20.367188 C 63.015625 20.230469 63.226562 19.980469 63.363281 19.808594 C 63.464844 19.679688 63.628906 19.339844 63.65625 19.4375 C 63.601562 19.816406 63.515625 20.164062 63.511719 20.589844 L 64.949219 20.589844 C 65.226562 16.582031 66.082031 13.160156 66.71875 9.515625 Z M 61.589844 19.734375 C 60.523438 19.757812 59.992188 19.09375 59.96875 17.988281 C 59.925781 16.054688 60.765625 13.90625 62.476562 13.714844 C 63.273438 13.625 63.847656 13.8125 64.433594 14.011719 C 63.898438 16.183594 64.089844 19.679688 61.589844 19.734375 Z M 47.902344 12.859375 C 47.824219 13.300781 47.703125 13.699219 47.605469 14.125 C 48.542969 13.886719 51.457031 13.160156 51.738281 14.421875 C 51.832031 14.839844 51.671875 15.28125 51.554688 15.609375 C 48.917969 15.359375 46.769531 15.800781 46.203125 17.691406 C 45.824219 18.957031 46.246094 20.203125 47.054688 20.554688 C 48.605469 21.222656 50.496094 20.457031 51.148438 19.402344 C 51.082031 19.765625 51.015625 20.136719 51.039062 20.589844 L 52.402344 20.589844 C 52.417969 19.273438 52.609375 18.207031 52.808594 17.023438 C 52.980469 16.011719 53.304688 15.015625 53.253906 14.125 C 53.132812 12.082031 49.78125 12.804688 47.902344 12.859375 Z M 50.484375 19.101562 C 49.667969 19.910156 47.371094 20.140625 47.605469 18.210938 C 47.800781 16.609375 49.53125 16.269531 51.40625 16.5 C 51.265625 17.378906 51.109375 18.488281 50.484375 19.101562 Z M 50.484375 19.101562 "/>
</g>
</svg>
